<?xml version="1.0" encoding="utf-8"?>
<!-- Generator: Adobe Illustrator 23.0.3, SVG Export Plug-In . SVG Version: 6.00 Build 0)  -->
<svg version="1.1" id="Layer_1" xmlns="http://www.w3.org/2000/svg" xmlns:xlink="http://www.w3.org/1999/xlink" x="0px" y="0px"
	 viewBox="0 0 595.28 841.89" style="enable-background:new 0 0 595.28 841.89;" xml:space="preserve">
<style type="text/css">
	.st0{fill:#FFFFFF;}
	.st1{fill:#4F4F4F;}
</style>
<g>
	<path class="st0" d="M54.06,319.67c0,18.74,0,36.31,0,54.68c7.73,0,14.91,0,21.97,0c0.68,1.97,1.16,3.18,1.51,4.42
		c6.53,22.63,19.13,41.5,36.2,57.43c23.98,22.39,52.55,36.19,84.22,43.82c8.57,2.07,17.3,3.44,26.9,5.32c0,17.57,0,35.13,0,53.38
		c18.54-0.15,36.09,0.44,54.45-0.43c0-18.36,0-35.97,0-53.84c2.73-0.53,4.72-0.96,6.73-1.29c32.38-5.33,62.25-16.74,88.36-36.97
		c23.02-17.84,40.06-40,48.1-68.44c0.34-1.19,1.14-2.26,2.08-4.07c7.82,0,15.75,0,24.15,0c0-18.37,0.06-35.92-0.03-54.26
		c-9.38,0-17.61,0-25.87,0c-9.86-31.52-29.24-55.04-55.36-73.31c-23.86-16.69-50.47-26.69-79.05-31.67
		c-2.98-0.52-5.93-1.21-9.55-1.96c0-17.21,0-33.76,0-50.81c-18.44-0.09-36-0.08-54.34-0.02c0,17.7,0,34.26,0,51.06
		c-3.52,0.62-6.31,1.18-9.11,1.59c-25.51,3.72-49.62,11.59-71.86,24.7c-31.08,18.32-54.57,43.15-65.86,78.2
		c-0.22,0.7-0.87,1.26-1.74,2.47C69.07,319.67,61.84,319.67,54.06,319.67z"/>
	<path class="st1" d="M54.06,319.67c7.78,0,15.01,0,21.87,0c0.87-1.21,1.51-1.77,1.74-2.47c11.29-35.05,34.79-59.88,65.86-78.2
		c22.24-13.11,46.35-20.98,71.86-24.7c2.81-0.41,5.59-0.97,9.11-1.59c0-16.8,0-33.37,0-51.06c18.34-0.06,35.9-0.07,54.34,0.02
		c0,17.05,0,33.61,0,50.81c3.63,0.75,6.57,1.44,9.55,1.96c28.59,4.99,55.2,14.98,79.05,31.67c26.12,18.27,45.5,41.79,55.36,73.31
		c8.26,0,16.5,0,25.87,0c0.09,18.34,0.03,35.89,0.03,54.26c-8.39,0-16.33,0-24.15,0c-0.94,1.81-1.74,2.87-2.08,4.07
		c-8.03,28.44-25.07,50.6-48.1,68.44c-26.1,20.23-55.98,31.64-88.36,36.97c-2.01,0.33-3.99,0.76-6.73,1.29c0,17.88,0,35.48,0,53.84
		c-18.36,0.86-35.92,0.28-54.45,0.43c0-18.24,0-35.8,0-53.38c-9.59-1.88-18.33-3.25-26.9-5.32c-31.67-7.63-60.24-21.43-84.22-43.82
		c-17.07-15.93-29.67-34.8-36.2-57.43c-0.36-1.24-0.83-2.45-1.51-4.42c-7.06,0-14.24,0-21.97,0
		C54.06,355.98,54.06,338.4,54.06,319.67z M116.65,374.57c7.16,59.61,61.34,102.99,107.5,105.19c0-34.93,0-69.84,0-105.19
		C188.15,374.57,152.66,374.57,116.65,374.57z M224.36,217.91c-53.31,3.04-101.33,52.79-106.62,100.76
		c8.73,1.59,100.8,1.18,106.62-0.57C224.36,284.97,224.36,251.74,224.36,217.91z M279.76,480.14c33.3-6.11,59.69-21.89,79.7-48
		c12.96-16.91,21.31-35.82,23.98-57.59c-35.15,0-69.15,0-103.69,0C279.76,409.7,279.76,444.42,279.76,480.14z M279.79,217.88
		c0,33.68,0,67.32,0,101.21c34.55,0,68.53,0,102.57,0C375.87,268.1,328.07,222.86,279.79,217.88z"/>
</g>
</svg>
